<?xml version="1.0" encoding="UTF-8" standalone="no"?>
<svg
   version="1.1"
   id="svg1"
   sodipodi:docname="singleplayer.svg"
   width="50"
   height="50"
   inkscape:version="1.3.2 (091e20e, 2023-11-25, custom)"
   xmlns:inkscape="http://www.inkscape.org/namespaces/inkscape"
   xmlns:sodipodi="http://sodipodi.sourceforge.net/DTD/sodipodi-0.dtd"
   xmlns="http://www.w3.org/2000/svg"
   xmlns:svg="http://www.w3.org/2000/svg">
  <sodipodi:namedview
     id="namedview1"
     pagecolor="#505050"
     bordercolor="#eeeeee"
     borderopacity="1"
     inkscape:showpageshadow="0"
     inkscape:pageopacity="0"
     inkscape:pagecheckerboard="0"
     inkscape:deskcolor="#505050"
     inkscape:zoom="4.6766667"
     inkscape:cx="41.375624"
     inkscape:cy="25.766215"
     inkscape:window-width="1920"
     inkscape:window-height="1017"
     inkscape:window-x="1592"
     inkscape:window-y="-8"
     inkscape:window-maximized="1"
     inkscape:current-layer="svg1" />
  <defs
     id="defs1">
    <clipPath
       clipPathUnits="userSpaceOnUse"
       id="clipPath2">
      <rect
         style="opacity:0.5;fill:#000000;stroke-width:0.78125"
         id="rect2"
         width="50"
         height="50"
         x="600"
         y="50" />
    </clipPath>
  </defs>
  <g
     id="g1"
     clip-path="url(#clipPath2)"
     transform="translate(-600,-50)">
    <path
       stroke="none"
       fill="#ffffff"
       d="m 739.05,10.1 v 28 q 0,0.85 -0.6,1.45 -0.6,0.55 -1.4,0.55 h -8 q -0.85,0 -1.45,-0.55 -0.55,-0.6 -0.55,-1.45 V 10.15 q 0,-0.85 0.55,-1.45 0.6,-0.6 1.45,-0.6 h 8 q 0.8,0 1.4,0.6 0.6,0.6 0.6,1.4 m -5.55,55.9 0.4,-0.5 q 1.4,-1.4 3.3,-1.4 1.95,0 3.35,1.4 1.35,1.4 1.35,3.35 0,1.9 -1.35,3.3 1.55,0.65 2.85,2 2.55,2.6 2.55,6.25 v 0.05 q 0,1.95 -2.55,3.25 -1.7,0.95 -3.85,1.25 V 84.8 84.75 q 0,-5.9 -4.15,-10.05 v -0.05 l -2.05,-1.7 0.3,-0.7 0.2,-0.1 -0.15,-0.1 q 0.4,-1.3 0.4,-2.65 0,-1.85 -0.6,-3.4 m -2.6,8.2 q 1.55,0.85 2.85,2.15 3.45,3.5 3.45,8.4 v 0.05 0.3 q -0.2,2.4 -3.45,4.1 -3.4,1.8 -8.25,1.8 -4.85,0 -8.3,-1.8 -3.2,-1.7 -3.4,-4.1 v -0.3 -0.05 q 0,-4.9 3.4,-8.4 1.35,-1.3 2.85,-2.15 L 721,73.75 q -1.75,-1.8 -1.75,-4.35 0,-2.65 1.85,-4.5 1.8,-1.9 4.4,-1.9 2.6,0 4.45,1.9 1.8,1.85 1.8,4.5 0,2.55 -1.75,4.35 l 0.9,0.45 M 722.45,8.7 q 0.6,0.6 0.6,1.4 v 28 q 0,0.85 -0.6,1.45 -0.6,0.55 -1.4,0.55 h -8 q -0.85,0 -1.45,-0.55 -0.55,-0.6 -0.55,-1.45 V 10.15 q 0,-0.85 0.55,-1.45 0.6,-0.6 1.45,-0.6 h 8 q 0.8,0 1.4,0.6 M 691,10 v 28 q 0,0.85 -0.6,1.45 Q 689.8,40 689,40 h -4 q -0.85,0 -1.45,-0.55 Q 683,38.85 683,38 V 10.05 Q 683,9.2 683.55,8.6 684.15,8 685,8 h 4 q 0.8,0 1.4,0.6 0.6,0.6 0.6,1.4 M 671.55,8.6 Q 672.15,8 673,8 h 4 q 0.8,0 1.4,0.6 0.6,0.6 0.6,1.4 v 28 q 0,0.85 -0.6,1.45 Q 677.8,40 677,40 h -4 q -0.85,0 -1.45,-0.55 Q 671,38.85 671,38 V 10.05 q 0,-0.85 0.55,-1.45 m -12,0 Q 660.15,8 661,8 h 4 q 0.8,0 1.4,0.6 0.6,0.6 0.6,1.4 v 28 q 0,0.85 -0.6,1.45 Q 665.8,40 665,40 h -4 q -0.85,0 -1.45,-0.55 Q 659,38.85 659,38 V 10.05 q 0,-0.85 0.55,-1.45 m 17.95,60.85 q 0,-2.3 1.6,-3.85 1.6,-1.6 3.8,-1.6 2.25,0 3.85,1.6 1.55,1.55 1.55,3.85 0,2.2 -1.55,3.75 1.8,0.75 3.3,2.25 2.95,2.95 2.95,7.2 0,2.25 -2.95,3.8 Q 687.1,88 682.9,88 l -5.15,-0.7 q 2.65,-1.95 2.45,-4.65 0,-4.8 -3.2,-8.3 0.95,-0.7 2.05,-1.15 -1.55,-1.55 -1.55,-3.75 m -5.55,3.75 q 1.8,0.75 3.3,2.25 l 0.25,0.25 q 2.7,2.9 2.7,6.95 0,2.15 -2.7,3.65 l -0.25,0.15 Q 672.3,88 668.1,88 q -4.2,0 -7.15,-1.55 -2.9,-1.55 -2.95,-3.8 0,-4.25 2.95,-7.2 1.5,-1.5 3.25,-2.25 -1.5,-1.55 -1.5,-3.75 0,-2.3 1.6,-3.85 1.55,-1.6 3.8,-1.6 2.25,0 3.85,1.6 1.55,1.55 1.55,3.85 0,2.2 -1.55,3.75 m 45.6,-7.2 q -0.65,1.55 -0.65,3.4 0,1.35 0.4,2.6 l -0.15,0.15 0.25,0.15 0.25,0.65 q -1.1,0.75 -2.05,1.7 v 0.05 q -4.15,4.15 -4.15,10.05 v 0.2 Q 709.3,84.65 707.6,83.7 705.05,82.4 705,80.45 V 80.4 q 0,-3.65 2.6,-6.25 1.25,-1.35 2.85,-2 -1.35,-1.4 -1.35,-3.3 0,-1.95 1.35,-3.35 1.4,-1.4 3.35,-1.4 1.95,0 3.35,1.4 l 0.4,0.5 m 8.45,49.7 q -4.15,0 -7.1,2.9 -2.95,2.95 -2.95,7.1 0,4.2 2.95,7.1 2.95,2.95 7.1,2.95 4.15,0 7.1,-2.95 h 0.05 q 2.9,-2.9 2.9,-7.1 0,-4.15 -2.9,-7.1 -3,-2.9 -7.15,-2.9 m 0,4.35 q 2.35,0 4,1.65 1.65,1.65 1.65,4 0,2.35 -1.65,4 -1.65,1.7 -4,1.7 -2.4,0 -4.05,-1.7 -1.6,-1.65 -1.6,-4 0,-2.35 1.6,-4 1.65,-1.65 4.05,-1.65 m -11.3,-5.7 q 4.7,-4.65 11.3,-4.65 6.6,0 11.3,4.7 4.7,4.7 4.7,11.3 0,6.65 -4.7,11.35 -4.7,4.65 -11.3,4.65 -6.6,0 -11.3,-4.65 -4.7,-4.7 -4.7,-11.35 0,-6.6 4.65,-11.3 h 0.05 v -0.05 m -23.9,5.45 q 1.2,2.85 1.2,6.2 0,0.5 -0.35,0.85 -0.35,0.35 -0.85,0.35 h -3.3 l -0.4,2.05 3.1,1.3 0.65,0.65 q 0.2,0.45 0,0.9 -1.15,2.85 -3.55,5.25 l -0.8,0.3 -0.85,-0.3 -2.35,-2.35 -1.75,1.2 1.3,3.05 q 0.2,0.45 0,0.9 l -0.65,0.65 q -2.85,1.2 -6.2,1.2 -0.5,0 -0.85,-0.35 -0.35,-0.35 -0.35,-0.85 v -3.3 l -2.05,-0.35 -1.25,3.05 -0.65,0.65 q -0.45,0.2 -0.9,0 -2.9,-1.15 -5.25,-3.5 -0.35,-0.35 -0.35,-0.85 0,-0.5 0.35,-0.85 l 2.35,-2.35 -1.2,-1.75 -3.1,1.3 q -0.45,0.2 -0.9,0 l -0.65,-0.65 q -1.2,-2.85 -1.2,-6.2 0,-0.5 0.35,-0.85 0.35,-0.35 0.85,-0.35 h 3.3 l 0.4,-2.05 -3.1,-1.25 -0.65,-0.65 q -0.2,-0.45 0,-0.9 1.15,-2.9 3.55,-5.25 0.35,-0.35 0.8,-0.35 0.5,0 0.85,0.35 l 2.35,2.35 q 0.85,-0.7 1.75,-1.2 l -1.3,-3.1 q -0.2,-0.45 0,-0.9 0.2,-0.45 0.65,-0.65 2.85,-1.2 6.2,-1.2 0.5,0 0.85,0.35 0.35,0.35 0.35,0.85 v 3.3 l 2.05,0.4 1.3,-3.1 q 0.15,-0.45 0.6,-0.65 0.45,-0.2 0.95,0 1.85,0.75 3.55,2.05 l 1.65,1.5 q 0.35,0.35 0.35,0.85 l -0.35,0.8 -2.3,2.35 1.15,1.75 3.1,-1.3 q 0.45,-0.2 0.9,0 l 0.65,0.65 M 676,118.25 q -3.2,0 -5.5,2.25 -2.25,2.3 -2.25,5.5 0,3.2 2.25,5.5 2.3,2.25 5.5,2.25 3.2,0 5.5,-2.25 2.25,-2.3 2.25,-5.5 0,-3.2 -2.25,-5.5 -2.3,-2.25 -5.5,-2.25 m 0,3.9 q 1.6,0 2.75,1.1 1.15,1.15 1.15,2.75 0,1.6 -1.15,2.75 -1.15,1.15 -2.75,1.15 -1.6,0 -2.75,-1.15 -1.1,-1.15 -1.1,-2.75 0,-1.6 1.1,-2.75 1.15,-1.1 2.75,-1.1 m 3,49.85 v 8 h -8 v -8 h -4 v -4 l 8,-8 8,8 v 4 h -4 m -14,4 q 0.8,0 1.4,0.6 0.6,0.6 0.6,1.4 v 6 h 16 v -5.95 q 0,-0.85 0.55,-1.45 0.6,-0.6 1.45,-0.6 h 4 q 0.8,0 1.4,0.6 0.6,0.6 0.6,1.4 v 12 q 0,0.85 -0.6,1.45 -0.6,0.55 -1.4,0.55 h -28 q -0.85,0 -1.45,-0.55 Q 659,190.85 659,190 v -11.95 q 0,-0.85 0.55,-1.45 0.6,-0.6 1.45,-0.6 h 4 m 57.5,-8.45 q -1.45,-1.5 -1.45,-3.55 0,-2.05 1.45,-3.5 1.5,-1.5 3.55,-1.5 2.1,0 3.55,1.5 h -0.05 q 1.5,1.5 1.5,3.5 0,2.15 -1.5,3.6 v -0.05 q -1.45,1.45 -3.5,1.45 -2.1,0 -3.55,-1.45 m 5.55,3.45 q 1.2,0 2.1,0.9 0.9,0.9 0.9,2.1 v 13 h 1 q 1.2,0 2.1,0.9 0.9,0.9 0.9,2.1 v 2 l -0.3,0.7 -0.7,0.3 h -16 q -0.4,0 -0.7,-0.3 -0.3,-0.3 -0.3,-0.7 v -1.95 q 0,-1.25 0.85,-2.1 v -0.05 q 0.9,-0.9 2.15,-0.9 h 1 v -10 h -3 q -0.4,0 -0.7,-0.3 -0.3,-0.3 -0.3,-0.7 v -4 q 0,-0.4 0.3,-0.7 0.3,-0.3 0.7,-0.3 h 10 m 4.65,51.3 0.3,0.7 v 8 l -0.3,0.7 q -0.3,0.3 -0.7,0.3 h -7 v 5 l -0.3,0.7 -0.7,0.3 h -4 l -0.7,-0.3 -10,-10 q -0.3,-0.3 -0.3,-0.7 0,-0.4 0.3,-0.7 l 10,-10 q 0.3,-0.3 0.7,-0.3 h 4 q 0.4,0 0.7,0.3 l 0.3,0.7 v 5 h 7 q 0.4,0 0.7,0.3 M 732,272 q 0,-2.5 -1.75,-4.25 Q 728.5,266 726,266 q -2.55,0 -4.3,1.75 -1.7,1.75 -1.7,4.25 0,2.45 1.7,4.2 1.75,1.8 4.3,1.8 2.5,0 4.25,-1.8 1.75,-1.75 1.75,-4.2 m 7.45,-58.4 q 0.55,0.6 0.55,1.45 V 239 q 0,0.85 -0.55,1.45 -0.6,0.55 -1.45,0.55 h -10 v -4 h 8 v -20 h -8 v -4 h 10 q 0.85,0 1.45,0.6 M 738,271.95 q 0,4 -2.3,7.1 l 0.05,0.05 5.05,8.8 0.15,0.65 -0.5,0.55 -0.65,0.15 -4.7,-1.25 -1.25,4.7 -0.5,0.5 -0.65,0.1 -0.55,-0.4 -5.05,-8.8 -0.05,-0.15 -1.05,0.05 -1.1,-0.05 -0.1,0.15 -5.05,8.8 -0.55,0.4 -0.65,-0.1 -0.5,-0.5 -1.25,-4.7 -4.7,1.25 -0.65,-0.15 -0.5,-0.55 q -0.05,-0.35 0.15,-0.65 l 5.05,-8.8 0.1,-0.1 q -2.25,-3.05 -2.25,-7.05 0,-5 3.4,-8.5 3.5,-3.45 8.6,-3.45 5,0 8.5,3.45 3.5,3.5 3.5,8.5 M 693,227 l -0.3,0.7 -10,10 -0.7,0.3 h -4 l -0.7,-0.3 -0.3,-0.7 v -5 h -7 q -0.4,0 -0.7,-0.3 -0.3,-0.3 -0.3,-0.7 v -8 q 0,-0.4 0.3,-0.7 0.3,-0.3 0.7,-0.3 h 7 v -5 q 0,-0.4 0.3,-0.7 0.3,-0.3 0.7,-0.3 h 4 q 0.4,0 0.7,0.3 l 10,10 0.3,0.7 m -19,-10 h -8 v 20 h 8 v 4 h -10 q -0.85,0 -1.45,-0.55 Q 662,239.85 662,239 v -23.95 q 0,-0.85 0.55,-1.45 0.6,-0.6 1.45,-0.6 h 10 v 4 m 14,54.95 q 0,4.95 -3.5,8.45 -1.6,1.65 -3.5,2.55 v 10.1 l -0.25,0.65 -0.65,0.25 -0.65,-0.2 -3.45,-3.45 -3.45,3.45 -0.65,0.2 -0.65,-0.25 -0.25,-0.65 V 283 q -1.95,-0.95 -3.6,-2.6 -3.4,-3.5 -3.4,-8.45 0,-5 3.4,-8.5 3.5,-3.45 8.6,-3.45 5,0 8.5,3.45 3.5,3.5 3.5,8.5 M 676,266 q -2.55,0 -4.3,1.75 -1.7,1.75 -1.7,4.25 0,2.45 1.7,4.2 1.75,1.8 4.3,1.8 2.5,0 4.25,-1.8 1.75,-1.75 1.75,-4.2 0,-2.5 -1.75,-4.25 Q 678.5,266 676,266 m 30,48 h 39 q 0.8,0 1.4,0.6 0.6,0.6 0.6,1.4 v 20 q 0,0.85 -0.6,1.45 -0.6,0.55 -1.4,0.55 h -39 q -0.85,0 -1.45,-0.55 Q 704,336.85 704,336 v -19.95 q 0,-0.85 0.55,-1.45 0.6,-0.6 1.45,-0.6 m -9.6,0.6 q 0.6,0.6 0.6,1.4 v 20 q 0,0.85 -0.6,1.45 l -0.45,0.35 -0.95,0.2 h -39 q -0.85,0 -1.45,-0.55 Q 654,336.85 654,336 v -19.95 q 0,-0.85 0.55,-1.45 0.6,-0.6 1.45,-0.6 h 39 l 0.95,0.25 0.45,0.35 m 38.85,13.15 -0.8,-0.85 q -0.55,0.75 -1.5,0.75 -0.65,0 -1.15,-0.45 -0.45,-0.5 -0.45,-1.3 0,-0.75 0.5,-1.2 0.5,-0.5 1.2,-0.5 0.85,0 1.45,0.75 l 0.8,-0.85 q -0.95,-1.05 -2.3,-1.05 -1.25,0 -2.1,0.8 -0.85,0.85 -0.85,2.1 0,1.25 0.85,2.05 0.8,0.8 2.1,0.8 1.3,0 2.25,-1.05 m 4.95,-3.5 v -1.1 h -4.45 v 1.1 h 1.6 v 4.5 h 1.25 v -4.5 h 1.6 m -64.85,2.2 h -1.4 l 0.7,-1.65 0.7,1.65 m -0.1,-3.3 h -1.2 l -2.45,5.6 h 1.35 l 0.5,-1.2 h 2.35 l 0.5,1.2 h 1.35 l -2.4,-5.6 m 4.3,3.8 h 0.85 l 1.25,1.8 h 1.5 l -1.4,-2 q 1.05,-0.4 1.05,-1.75 0,-0.95 -0.55,-1.4 -0.55,-0.45 -1.85,-0.45 h -2.1 v 5.6 h 1.25 v -1.8 m 0,-2.7 h 0.9 l 0.85,0.15 0.25,0.6 -0.25,0.7 -0.85,0.2 h -0.9 v -1.65 m 6.9,0 h 1.6 v -1.1 h -4.45 v 1.1 h 1.6 v 4.5 h 1.25 v -4.5 m -22.95,0.4 0.2,-0.4 0.5,-0.1 q 0.75,0 1.5,0.55 l 0.65,-0.95 -1,-0.55 -1.1,-0.15 q -0.9,0 -1.45,0.4 -0.55,0.45 -0.55,1.25 0,0.8 0.45,1.15 0.45,0.4 1.4,0.6 l 0.85,0.3 0.2,0.4 -0.2,0.4 -0.55,0.15 q -0.75,0 -1.65,-0.8 l -0.75,0.95 q 1.05,0.95 2.4,0.95 l 1.45,-0.45 q 0.6,-0.45 0.6,-1.2 0,-0.75 -0.45,-1.15 l -1.25,-0.6 -1,-0.35 -0.25,-0.4 m 3.5,-1.5 v 1.1 h 1.6 v 4.5 h 1.25 v -4.5 h 1.6 v -1.1 H 667 m 47.3,4 q 0,-0.75 -0.45,-1.15 -0.45,-0.4 -1.25,-0.6 l -1,-0.35 -0.25,-0.4 0.2,-0.4 0.5,-0.1 q 0.75,0 1.5,0.55 l 0.65,-0.95 q -0.45,-0.35 -1,-0.55 l -1.1,-0.15 q -0.9,0 -1.45,0.4 -0.55,0.45 -0.55,1.25 0,0.8 0.45,1.15 0.45,0.4 1.4,0.6 l 0.85,0.3 0.2,0.4 -0.2,0.4 -0.55,0.15 q -0.75,0 -1.65,-0.8 l -0.75,0.95 q 1.05,0.95 2.4,0.95 0.9,0 1.45,-0.45 0.6,-0.45 0.6,-1.2 m 7.55,0.5 v -4.5 h -1.25 v 5.6 h 3.6 v -1.1 h -2.35 m -2.5,-3.4 v -1.1 h -4 v 5.6 h 4.1 v -1.1 h -2.85 v -1.15 h 2.5 v -1.1 h -2.5 v -1.15 h 2.75 m 7.05,3.4 v -1.15 h 2.5 v -1.1 h -2.5 v -1.15 h 2.75 v -1.1 h -4 v 5.6 h 4.1 v -1.1 H 726.4 M 645,14 q 0,0.85 -0.6,1.45 Q 643.8,16 643,16 h -32 q -0.85,0 -1.45,-0.55 Q 609,14.85 609,14 V 10.05 Q 609,9.2 609.55,8.6 610.15,8 611,8 h 32 q 0.8,0 1.4,0.6 0.6,0.6 0.6,1.4 v 4 m -0.6,6.6 q 0.6,0.6 0.6,1.4 v 4 q 0,0.85 -0.6,1.45 Q 643.8,28 643,28 h -32 q -0.85,0 -1.45,-0.55 Q 609,26.85 609,26 v -3.95 q 0,-0.85 0.55,-1.45 0.6,-0.6 1.45,-0.6 h 32 q 0.8,0 1.4,0.6 M 609.55,39.45 Q 609,38.85 609,38 v -3.95 q 0,-0.85 0.55,-1.45 0.6,-0.6 1.45,-0.6 h 32 q 0.8,0 1.4,0.6 0.6,0.6 0.6,1.4 v 4 q 0,0.85 -0.6,1.45 Q 643.8,40 643,40 h -32 q -0.85,0 -1.45,-0.55 M 590.4,20.6 q 0.6,0.6 0.6,1.4 v 4 q 0,0.85 -0.6,1.45 Q 589.8,28 589,28 h -16 q -0.85,0 -1.45,-0.55 Q 571,26.85 571,26 v -3.95 q 0,-0.85 0.55,-1.45 0.6,-0.6 1.45,-0.6 h 16 q 0.8,0 1.4,0.6 M 591,14 q 0,0.85 -0.6,1.45 Q 589.8,16 589,16 h -16 q -0.85,0 -1.45,-0.55 Q 571,14.85 571,14 V 10.05 Q 571,9.2 571.55,8.6 572.15,8 573,8 h 16 q 0.8,0 1.4,0.6 0.6,0.6 0.6,1.4 v 4 m -24,0 q 0,0.85 -0.6,1.45 Q 565.8,16 565,16 h -4 q -0.85,0 -1.45,-0.55 Q 559,14.85 559,14 V 10.05 Q 559,9.2 559.55,8.6 560.15,8 561,8 h 4 q 0.8,0 1.4,0.6 0.6,0.6 0.6,1.4 v 4 m 0,24 q 0,0.85 -0.6,1.45 Q 565.8,40 565,40 h -4 q -0.85,0 -1.45,-0.55 Q 559,38.85 559,38 v -3.95 q 0,-0.85 0.55,-1.45 0.6,-0.6 1.45,-0.6 h 4 q 0.8,0 1.4,0.6 0.6,0.6 0.6,1.4 v 4 m 4.55,1.45 Q 571,38.85 571,38 v -3.95 q 0,-0.85 0.55,-1.45 0.6,-0.6 1.45,-0.6 h 16 q 0.8,0 1.4,0.6 0.6,0.6 0.6,1.4 v 4 q 0,0.85 -0.6,1.45 Q 589.8,40 589,40 h -16 q -0.85,0 -1.45,-0.55 M 567,26 q 0,0.85 -0.6,1.45 Q 565.8,28 565,28 h -4 q -0.85,0 -1.45,-0.55 Q 559,26.85 559,26 v -3.95 q 0,-0.85 0.55,-1.45 0.6,-0.6 1.45,-0.6 h 4 q 0.8,0 1.4,0.6 0.6,0.6 0.6,1.4 v 4 m 13.5,37.5 q 3.5,3.5 3.5,8.55 0,1.85 -0.45,3.5 l 1.3,1.35 0.3,0.3 0.35,0.35 4.9,4.9 q 1.6,1.7 1.65,3.95 v 0.25 q -0.05,2.25 -1.65,3.8 -1.35,1.4 -3.15,1.65 l -0.8,0.05 -0.75,-0.05 q -1.8,-0.25 -3.25,-1.6 l -2.5,-2.5 v -0.05 l -4.25,-4.3 0.4,0.45 -0.55,-0.55 L 572,84 q -5,0 -8.55,-3.5 Q 560,77 560,72.05 q 0,-5 3.45,-8.55 3.6,-3.5 8.55,-3.5 5.05,0 8.5,3.5 m -0.6,8.4 q -0.05,-3.25 -2.3,-5.5 v -0.05 q -2.3,-2.25 -5.6,-2.25 -3.3,0 -5.65,2.25 l -0.05,0.05 q -2.25,2.3 -2.25,5.65 0,3.25 2.3,5.55 2.3,2.25 5.55,2.3 h 0.1 q 3.3,0 5.55,-2.3 h 0.05 q 2.3,-2.3 2.3,-5.55 V 71.9 m 50.45,0.35 q 2.5,1.05 4.55,3 4.1,3.95 4.1,9.6 0,3 -4.1,5.05 -4.05,2.1 -9.9,2.1 -5.8,0 -9.9,-2.1 -4.05,-2.05 -4.1,-5.05 0,-5.65 4.1,-9.6 2.05,-1.95 4.55,-3 -2.1,-2.1 -2.1,-5 0,-3 2.2,-5.1 Q 621.9,60 625,60 q 3.15,0 5.3,2.15 2.2,2.1 2.2,5.1 0,2.9 -2.15,5 M 541,10 v 4 q 0,0.85 -0.6,1.45 Q 539.8,16 539,16 h -4 q -0.85,0 -1.45,-0.55 Q 533,14.85 533,14 V 10.05 Q 533,9.2 533.55,8.6 534.15,8 535,8 h 4 q 0.8,0 1.4,0.6 0.6,0.6 0.6,1.4 m -12,0 v 4 q 0,0.85 -0.6,1.45 Q 527.8,16 527,16 h -4 q -0.85,0 -1.45,-0.55 Q 521,14.85 521,14 V 10.05 Q 521,9.2 521.55,8.6 522.15,8 523,8 h 4 q 0.8,0 1.4,0.6 0.6,0.6 0.6,1.4 m 6,10 h 4 q 0.8,0 1.4,0.6 0.6,0.6 0.6,1.4 v 4 q 0,0.85 -0.6,1.45 Q 539.8,28 539,28 h -4 q -0.85,0 -1.45,-0.55 Q 533,26.85 533,26 v -3.95 q 0,-0.85 0.55,-1.45 0.6,-0.6 1.45,-0.6 m -6.6,0.6 q 0.6,0.6 0.6,1.4 v 4 q 0,0.85 -0.6,1.45 Q 527.8,28 527,28 h -4 q -0.85,0 -1.45,-0.55 Q 521,26.85 521,26 v -3.95 q 0,-0.85 0.55,-1.45 0.6,-0.6 1.45,-0.6 h 4 q 0.8,0 1.4,0.6 M 541,34 v 4 q 0,0.85 -0.6,1.45 Q 539.8,40 539,40 h -4 q -0.85,0 -1.45,-0.55 Q 533,38.85 533,38 v -3.95 q 0,-0.85 0.55,-1.45 0.6,-0.6 1.45,-0.6 h 4 q 0.8,0 1.4,0.6 0.6,0.6 0.6,1.4 m -12.6,-1.4 q 0.6,0.6 0.6,1.4 v 4 q 0,0.85 -0.6,1.45 Q 527.8,40 527,40 h -4 q -0.85,0 -1.45,-0.55 Q 521,38.85 521,38 v -3.95 q 0,-0.85 0.55,-1.45 0.6,-0.6 1.45,-0.6 h 4 q 0.8,0 1.4,0.6 M 517,10 v 4 q 0,0.85 -0.6,1.45 Q 515.8,16 515,16 h -4 q -0.85,0 -1.45,-0.55 Q 509,14.85 509,14 V 10.05 Q 509,9.2 509.55,8.6 510.15,8 511,8 h 4 q 0.8,0 1.4,0.6 0.6,0.6 0.6,1.4 m -2,10 q 0.8,0 1.4,0.6 0.6,0.6 0.6,1.4 v 4 q 0,0.85 -0.6,1.45 Q 515.8,28 515,28 h -4 q -0.85,0 -1.45,-0.55 Q 509,26.85 509,26 v -3.95 q 0,-0.85 0.55,-1.45 0.6,-0.6 1.45,-0.6 h 4 m -24.95,4.1 -0.3,0.7 -12,12 -0.7,0.3 q -0.4,0 -0.7,-0.3 -0.3,-0.3 -0.3,-0.7 v -24 q 0,-0.4 0.3,-0.7 0.3,-0.3 0.7,-0.3 0.4,0 0.7,0.3 l 12,12 0.3,0.7 M 517,34 v 4 q 0,0.85 -0.6,1.45 Q 515.8,40 515,40 h -4 q -0.85,0 -1.45,-0.55 Q 509,38.85 509,38 v -3.95 q 0,-0.85 0.55,-1.45 0.6,-0.6 1.45,-0.6 h 4 q 0.8,0 1.4,0.6 0.6,0.6 0.6,1.4 m -0.65,32.35 -0.05,0.05 q -2.25,2.3 -2.25,5.65 0,3.25 2.3,5.55 2.3,2.25 5.55,2.3 h 0.1 q 3.3,0 5.55,-2.3 h 0.05 q 2.3,-2.3 2.3,-5.55 V 71.9 q -0.05,-3.25 -2.3,-5.5 v -0.05 q -2.3,-2.25 -5.6,-2.25 -3.3,0 -5.65,2.25 m -6.35,5.7 q 0,-5 3.45,-8.55 3.6,-3.5 8.55,-3.5 5.05,0 8.5,3.5 3.5,3.5 3.5,8.55 0,1.85 -0.45,3.5 l 1.3,1.35 0.3,0.3 0.35,0.35 4.9,4.9 q 1.6,1.7 1.65,3.95 v 0.25 q -0.05,2.25 -1.65,3.8 -1.35,1.4 -3.15,1.65 l -0.8,0.05 -0.75,-0.05 q -1.8,-0.25 -3.25,-1.6 l -2.5,-2.5 v -0.05 l -4.25,-4.3 0.4,0.45 -0.55,-0.55 L 522,84 q -5,0 -8.55,-3.5 Q 510,77 510,72.05 m 16.05,1.05 v 3 h -8 v -3 h 8 m -8,-4 h 8 v 3 h -8 v -3 m -31.6,23.05 -0.75,-0.05 q -1.8,-0.25 -3.25,-1.6 l -6.75,-6.85 0.4,0.45 -0.55,-0.55 L 472,84 q -5,0 -8.55,-3.5 Q 460,77 460,72.05 q 0,-5 3.45,-8.55 3.6,-3.5 8.55,-3.5 5.05,0 8.5,3.5 3.5,3.5 3.5,8.55 0,1.85 -0.45,3.5 l 1.3,1.35 0.3,0.3 0.35,0.35 4.9,4.9 q 1.6,1.7 1.65,3.95 v 0.25 q -0.05,2.25 -1.65,3.8 -1.35,1.4 -3.15,1.65 l -0.8,0.05 M 533,118 q 0,1.7 -1.2,2.85 -1.15,1.15 -2.8,1.15 v 8 h 10 q 0.8,0 1.4,0.6 0.6,0.6 0.6,1.4 v 10 h -32 v -9.95 q 0,-0.85 0.55,-1.45 0.6,-0.6 1.45,-0.6 h 10 v -8 q -1.7,0 -2.85,-1.15 Q 517,119.65 517,118 v -4 q 0,-1.65 1.15,-2.8 1.2,-1.2 2.85,-1.2 h 8 q 1.65,0 2.8,1.2 1.2,1.2 1.2,2.8 v 4 m 4,16 h -4 v 4 h 4 v -4 m 28.1,6 -0.45,-10.1 -5.65,-8.45 9.6,-3.55 6.45,-7.9 6.35,7.9 9.6,3.55 -5.65,8.45 -0.55,10.1 -9.75,-2.65 -9.95,2.65 M 491,120 v 10 q 0,1.7 -1.2,2.85 -1.15,1.15 -2.8,1.15 h -8 v 4 h 6 q 0.8,0 1.4,0.6 0.6,0.6 0.6,1.4 v 2 h -24 v -1.95 q 0,-0.85 0.55,-1.45 0.6,-0.6 1.45,-0.6 h 6 v -4 h -8 q -1.7,0 -2.85,-1.15 Q 459,131.65 459,130 v -9.95 q 0,-0.85 0.55,-1.45 0.6,-0.6 1.45,-0.6 h 4 v -4 h 20 v 4 h 4 q 0.8,0 1.4,0.6 0.6,0.6 0.6,1.4 m -4,2 h -2 v 8 h 2 v -8 m 36.95,47.3 -0.4,0.3 Q 523,170.2 523,171.05 V 180 q 0,0.85 0.55,1.45 l 0.4,0.3 1,0.25 H 526 q 0.8,0 1.4,-0.55 0.6,-0.6 0.6,-1.45 v -9 q 0,-0.8 -0.6,-1.4 -0.6,-0.6 -1.4,-0.6 h -1.05 q -0.55,0 -1,0.3 m 0.6,-8.05 q 0.95,-0.45 1.95,0 h 0.05 q 0.85,0.35 1.3,1.3 l 13.75,24.7 q 0.45,0.95 0.4,2 v 0.05 q -0.15,1.15 -0.9,1.85 h 0.05 q -0.8,0.85 -1.9,0.85 h -27.5 q -1.15,0 -1.9,-0.9 -0.7,-0.75 -0.85,-1.8 -0.15,-1.05 0.35,-2.05 h 0.05 l 13.75,-24.7 v -0.05 q 0.5,-0.9 1.35,-1.25 h 0.05 M 525.5,184 q -1.05,0 -1.8,0.75 -0.7,0.7 -0.7,1.75 0,1 0.7,1.75 0.75,0.75 1.8,0.75 1.05,0 1.75,-0.75 v 0.05 q 0.75,-0.75 0.75,-1.8 0,-1 -0.75,-1.75 h 0.05 Q 526.6,184 525.5,184 M 565,160 h 4.95 v 4 H 567 v 24 h 2.95 v 4 H 565 q -0.85,0 -1.45,-0.55 Q 563,190.85 563,190 v -27.95 q 0,-0.85 0.55,-1.45 0.6,-0.6 1.45,-0.6 m 63,-46.85 q 2.75,2.5 3.2,6.15 v 0.1 0.05 1.45 l -0.1,1.15 8.95,8.85 q 1.7,1.5 1.9,3.7 l 0.05,0.9 q 0,2.8 -1.9,4.65 l -0.05,0.05 q -1.75,1.8 -4.7,1.8 -2.65,0 -4.65,-1.8 v -0.05 l -5.95,-5.9 -0.15,-0.4 -2.95,-2.8 -2.65,-0.15 0.1,0.05 q -3.5,-0.55 -5.95,-2.9 V 128 q -3.55,-3.7 -3.1,-8.2 0.05,-1.45 0.6,-2.9 0.1,-0.3 0.35,-0.45 l 0.5,-0.1 0.4,0.25 5.7,5.7 1.1,0.6 1,-0.55 v -0.05 l 2.4,-2.5 q 0.75,-0.7 0.4,-1.5 l -0.45,-0.7 -5.7,-5.45 -0.2,-0.4 q -0.1,-0.3 0.05,-0.5 0.1,-0.25 0.35,-0.35 0.65,-0.35 1.25,-0.55 h 0.05 l 4.75,-0.15 q 3.1,0.55 5.45,2.95 H 628 m 9.15,20.95 q -1.6,-1.35 -3.25,0 v 0.05 l -0.45,0.85 -0.05,0.1 -0.1,0.6 q 0,0.85 0.6,1.6 0.75,0.6 1.65,0.6 0.95,0 1.6,-0.6 0.75,-0.75 0.75,-1.6 l -0.1,-0.65 -0.6,-0.9 -0.05,-0.05 m -58.75,43.35 q 0.6,-0.6 0.6,-1.45 0,-0.8 -0.6,-1.4 h 0.05 q -0.6,-0.6 -1.45,-0.6 -0.8,0 -1.4,0.6 -0.6,0.6 -0.6,1.4 0,0.85 0.6,1.45 0.55,0.55 1.4,0.55 0.85,0 1.4,-0.55 m -5.85,-14 q 0.6,-0.7 1.4,-0.85 L 588,159.9 v 30 l -14.05,2.7 q -0.8,0.15 -1.4,-0.3 Q 572,191.8 572,190.95 V 165 q 0,-0.85 0.55,-1.55 M 633,168 v 4 l -8,8 -8,-8 v -4 h 4 v -8 h 8 v 8 h 4 m -16,10 v 6 h 16 v -5.95 q 0,-0.85 0.55,-1.45 0.6,-0.6 1.45,-0.6 h 4 q 0.8,0 1.4,0.6 0.6,0.6 0.6,1.4 v 12 q 0,0.85 -0.6,1.45 -0.6,0.55 -1.4,0.55 h -28 q -0.85,0 -1.45,-0.55 Q 609,190.85 609,190 v -11.95 q 0,-0.85 0.55,-1.45 0.6,-0.6 1.45,-0.6 h 4 q 0.8,0 1.4,0.6 0.6,0.6 0.6,1.4 M 473.05,11.1 q 0.4,0 0.7,0.3 l 0.3,0.7 v 24 l -0.3,0.7 -0.7,0.3 q -0.4,0 -0.7,-0.3 l -12,-12 q -0.3,-0.3 -0.3,-0.7 0,-0.4 0.3,-0.7 l 12,-12 q 0.3,-0.3 0.7,-0.3 m -35.3,10.3 0.3,0.7 -0.3,0.7 -0.7,0.3 h -24 l -0.7,-0.3 q -0.3,-0.3 -0.3,-0.7 0,-0.4 0.3,-0.7 l 12,-12 q 0.3,-0.3 0.7,-0.3 0.4,0 0.7,0.3 l 12,12 m -25.7,4.7 q 0,-0.4 0.3,-0.7 0.3,-0.3 0.7,-0.3 h 24 q 0.4,0 0.7,0.3 l 0.3,0.7 -0.3,0.7 -12,12 -0.7,0.3 -0.7,-0.3 -12,-12 q -0.3,-0.3 -0.3,-0.7 m 17.85,45.8 q -0.05,-3.25 -2.3,-5.5 v -0.05 q -2.3,-2.25 -5.6,-2.25 -3.3,0 -5.65,2.25 l -0.05,0.05 q -2.25,2.3 -2.25,5.65 0,3.25 2.3,5.55 2.3,2.25 5.55,2.3 h 0.1 q 3.3,0 5.55,-2.3 h 0.05 q 2.3,-2.3 2.3,-5.55 V 71.9 m 0.6,-8.4 q 3.5,3.5 3.5,8.55 0,1.85 -0.45,3.5 l 1.3,1.35 0.3,0.3 0.35,0.35 4.9,4.9 q 1.6,1.7 1.65,3.95 v 0.25 q -0.05,2.25 -1.65,3.8 -1.35,1.4 -3.15,1.65 l -0.8,0.05 -0.75,-0.05 q -1.8,-0.25 -3.25,-1.6 l -2.5,-2.5 v -0.05 l -4.25,-4.3 0.4,0.45 -0.55,-0.55 L 422,84 q -5,0 -8.55,-3.5 Q 410,77 410,72.05 q 0,-5 3.45,-8.55 3.6,-3.5 8.55,-3.5 5.05,0 8.5,3.5 m -4.45,10.6 h -8 v -4 h 8 v 4 m 44,-6 h 4 v 2 h 2 v 4 h -2 v 2 h -4 v -2 h -2 v -4 h 2 v -2 m -3.7,-1.75 -0.05,0.05 q -2.25,2.3 -2.25,5.65 0,3.25 2.3,5.55 2.3,2.25 5.55,2.3 h 0.1 q 3.3,0 5.55,-2.3 h 0.05 q 2.3,-2.3 2.3,-5.55 V 71.9 q -0.05,-3.25 -2.3,-5.5 v -0.05 q -2.3,-2.25 -5.6,-2.25 -3.3,0 -5.65,2.25 M 392,17 v 2 L 376,35 360,19 v -2 q 0,-0.85 0.55,-1.45 Q 361.15,15 362,15 h 27.95 q 0.85,0 1.45,0.55 0.6,0.6 0.6,1.45 M 340.4,34.45 Q 339.8,35 338.95,35 H 311 q -0.85,0 -1.45,-0.55 Q 309,33.85 309,33 v -2 l 16,-16 16,16 v 2 q 0,0.85 -0.6,1.45 M 362,72 h 10 v -9.95 q 0,-0.85 0.55,-1.45 0.6,-0.6 1.45,-0.6 h 4 q 0.8,0 1.4,0.6 0.6,0.6 0.6,1.4 v 10 h 10 q 0.8,0 1.4,0.6 0.6,0.6 0.6,1.4 v 4 q 0,0.85 -0.6,1.45 Q 390.8,80 390,80 h -10 v 10 q 0,0.85 -0.6,1.45 Q 378.8,92 378,92 h -4 q -0.85,0 -1.45,-0.55 Q 372,90.85 372,90 V 80 h -10 q -0.85,0 -1.45,-0.55 Q 360,78.85 360,78 v -3.95 q 0,-0.85 0.55,-1.45 0.6,-0.6 1.45,-0.6 m -20.6,0.6 q 0.6,0.6 0.6,1.4 v 4 q 0,0.85 -0.6,1.45 Q 340.8,80 340,80 h -28 q -0.85,0 -1.45,-0.55 Q 310,78.85 310,78 v -3.95 q 0,-0.85 0.55,-1.45 0.6,-0.6 1.45,-0.6 h 28 q 0.8,0 1.4,0.6 m 42.65,61.4 v 4 h 4 v -4 h -4 m -16,-16 h 12 v 12 h 12 v 12 h -36 v -16 h 12 v -8 m 8,4 h -4 v 4 h 4 v -4 M 338,110.95 v 4 h -4 v -4 h -16 v 14 h 24 v 18 q 0,0.85 -0.6,1.45 -0.6,0.55 -1.4,0.55 h -28 q -0.85,0 -1.45,-0.55 -0.55,-0.6 -0.55,-1.45 v -18 h 4 v -14 q 0,-1.65 1.15,-2.8 1.2,-1.2 2.85,-1.2 h 16 q 1.65,0 2.8,1.2 1.2,1.2 1.2,2.8 m -4,7 V 115 h 4 v 2.95 h -4 m -4,19 v -4 h -8 v 4 h 2 v 4 h 4 v -4 h 2 M 360.05,134 h 4 v -4 h -4 v 4 m 1.65,28.85 q 0.4,-0.8 1.2,-1 l 4.85,-1.3 -0.2,-0.9 q -0.25,-0.85 0.15,-1.55 0.4,-0.75 1.25,-0.95 l 5.8,-1.55 q 0.75,-0.2 1.5,0.25 0.7,0.35 0.9,1.15 l 0.25,0.95 4.85,-1.25 q 0.75,-0.25 1.55,0.2 0.7,0.4 0.9,1.2 l 1.5,5.7 -23.15,6.2 -1.5,-5.65 q -0.2,-0.85 0.15,-1.5 m -31.65,-0.75 h 5 q 0.8,0 1.4,0.6 0.6,0.6 0.6,1.4 v 5.9 h -24 v -5.85 q 0,-0.85 0.55,-1.45 0.6,-0.6 1.45,-0.6 h 5 v -0.95 q 0,-0.85 0.55,-1.45 0.6,-0.6 1.45,-0.6 h 6 q 0.8,0 1.4,0.6 0.6,0.6 0.6,1.4 v 1 m 5,32 h -20 q -0.85,0 -1.45,-0.55 -0.55,-0.6 -0.55,-1.45 V 172 h 24 v 20.1 q 0,0.85 -0.6,1.45 -0.6,0.55 -1.4,0.55 m 28,-2 V 172 h 24 v 20.1 q 0,0.85 -0.6,1.45 -0.6,0.55 -1.4,0.55 h -20 q -0.85,0 -1.45,-0.55 -0.55,-0.6 -0.55,-1.45 M 465,122 h -2 v 8 h 2 v -8 m -32.6,-8.4 q 0.6,0.6 0.6,1.4 v 11 h 8 q 0.8,0 1.4,0.6 0.6,0.6 0.6,1.4 v 11 q 0,0.85 -0.6,1.45 -0.6,0.55 -1.4,0.55 h -30 q -0.85,0 -1.45,-0.55 Q 409,139.85 409,139 v -10.95 q 0,-0.85 0.55,-1.45 0.6,-0.6 1.45,-0.6 h 7 v -10.95 q 0,-0.85 0.55,-1.45 0.6,-0.6 1.45,-0.6 h 11 q 0.8,0 1.4,0.6 m 5.6,21.1 q 0,-0.75 -0.45,-1.3 -0.45,-0.55 -1.3,-0.7 l 1.45,-1.6 V 130 h -4.3 v 1.35 h 2.2 l -1.35,1.55 v 1.1 l 0.95,-0.15 q 0.6,0 0.95,0.25 0.35,0.25 0.35,0.7 l -0.3,0.65 -0.8,0.2 q -0.75,0 -1.75,-0.7 L 433,136.2 q 1.2,0.8 2.35,0.8 1.15,0 1.9,-0.6 0.75,-0.6 0.75,-1.7 m -19.2,-2.6 q 0,-1 -0.7,-1.6 -0.65,-0.5 -1.55,-0.5 -0.9,0 -1.45,0.4 -0.6,0.35 -1.1,1.1 l 1.25,0.75 q 0.6,-0.95 1.2,-0.95 l 0.6,0.2 0.25,0.6 -0.3,0.75 -0.85,0.95 -2,2.05 V 137 H 419 v -1.4 h -2.75 l 1.25,-1.25 1,-1.25 0.3,-1 M 424,118 v 1.35 h 1.45 V 125 H 427 v -7 h -3 m 4.4,44.6 q 0.6,0.6 0.6,1.4 v 15 q 0,0.85 -0.6,1.45 -0.6,0.55 -1.4,0.55 h -4 q -0.85,0 -1.45,-0.55 Q 421,179.85 421,179 v -14.95 q 0,-0.85 0.55,-1.45 0.6,-0.6 1.45,-0.6 h 4 q 0.8,0 1.4,0.6 M 421,188 q 0,-1.65 1.15,-2.8 1.2,-1.2 2.85,-1.2 1.7,0 2.85,1.2 h -0.05 q 1.2,1.2 1.2,2.8 0,1.7 -1.2,2.9 v -0.05 q -1.15,1.15 -2.8,1.15 -1.7,0 -2.85,-1.15 Q 421,189.65 421,188 m 52.35,-16.15 q -0.35,0.3 -0.85,0.3 h -6.35 l -0.6,-0.2 -0.45,-0.45 -0.1,-0.75 q 0.4,-4.6 3.25,-7.15 2.8,-2.6 7.05,-2.6 4.25,0 6.95,2.3 2.75,2.45 2.75,6.7 0,2.05 -0.55,3 l -0.55,1.05 h 0.05 l -0.9,1.35 -0.05,0.05 -0.8,0.9 v 0.05 l -1.85,1.8 -0.75,0.85 h -0.3 v 0.05 h 0.3 l -0.2,0.25 -0.1,0.85 v 0.6 0.1 l -0.35,0.8 -0.9,0.3 h -6.1 l -0.85,-0.3 q -0.35,-0.35 -0.4,-0.8 v -2.8 h 0.15 q 0.1,-0.9 0.4,-1.45 0.45,-0.95 2,-2.6 l 2.7,-2.7 0.25,-1.1 -0.35,-1.1 q -0.25,-0.35 -0.7,-0.3 -0.45,0 -0.8,0.4 v -0.05 q -0.45,0.7 -0.55,1.85 l -0.45,0.8 M 475.4,184 q 1.9,0 3.25,1.25 1.35,1.3 1.35,3.2 0,1.9 -1.35,3.25 -1.35,1.3 -3.25,1.3 -1.8,0 -3.1,-1.3 -1.3,-1.3 -1.3,-3.25 0,-1.9 1.3,-3.2 1.3,-1.25 3.1,-1.25 m 3,34.6 q 0.6,0.6 0.6,1.4 v 20 q 0,0.85 -0.6,1.45 -0.6,0.55 -1.4,0.55 h -4 q -0.85,0 -1.45,-0.55 Q 471,240.85 471,240 v -19.95 q 0,-0.85 0.55,-1.45 0.6,-0.6 1.45,-0.6 h 4 q 0.8,0 1.4,0.6 M 461,242 q -0.85,0 -1.45,-0.55 Q 459,240.85 459,240 v -11.95 q 0,-0.85 0.55,-1.45 0.6,-0.6 1.45,-0.6 h 4 q 0.8,0 1.4,0.6 0.6,0.6 0.6,1.4 v 12 q 0,0.85 -0.6,1.45 -0.6,0.55 -1.4,0.55 h -4 m -44,-14 v 12 q 0,0.85 -0.6,1.45 -0.6,0.55 -1.4,0.55 h -4 q -0.85,0 -1.45,-0.55 Q 409,240.85 409,240 v -11.95 q 0,-0.85 0.55,-1.45 0.6,-0.6 1.45,-0.6 h 4 q 0.8,0 1.4,0.6 0.6,0.6 0.6,1.4 m 11.55,42.5 -1.8,2.15 2.8,10.45 h 8.5 q 1.2,0 2.1,0.9 0.9,0.9 0.9,2.1 v 6.85 l -0.3,0.7 -0.7,0.3 h -28 l -0.7,-0.3 q -0.3,-0.3 -0.3,-0.7 v -6.8 q 0,-1.25 0.85,-2.1 V 284 q 0.9,-0.9 2.15,-0.9 h 9.3 l -2.4,-8.9 q -1.35,-0.2 -2.7,-0.95 -2.65,-1.55 -3.45,-4.55 -0.8,-2.95 0.7,-5.7 1.65,-2.65 4.65,-3.45 3,-0.8 5.65,0.7 2.7,1.6 3.5,4.55 0.8,3 -0.75,5.7 m 47.55,-10.25 q 2.75,-1.5 5.75,-0.7 3,0.8 4.55,3.45 1.6,2.75 0.8,5.7 -0.8,3 -3.55,4.55 -1.25,0.75 -2.6,0.95 l -2.35,8.9 h 9.35 q 1.2,0 2.1,0.9 0.9,0.9 0.9,2.1 v 6.85 l -0.3,0.7 q -0.3,0.3 -0.7,0.3 h -28 l -0.7,-0.3 q -0.3,-0.3 -0.3,-0.7 v -6.8 q 0,-1.25 0.85,-2.1 V 284 q 0.9,-0.9 2.15,-0.9 h 8.4 l 2.8,-10.45 q -1.1,-0.85 -1.9,-2.15 -1.45,-2.7 -0.65,-5.7 0.8,-2.95 3.4,-4.55 m -89.2,-45.8 0.85,0.75 v 0.05 q 4.85,4.85 4.85,11.75 0,6.9 -4.85,11.7 l -0.05,0.05 q -4.8,4.85 -11.7,4.85 -6.9,0 -11.75,-4.85 -4.85,-4.85 -4.85,-11.75 0,-6.75 4.65,-11.55 l 0.2,-0.25 0.8,-0.7 q 0.3,-0.25 0.75,-0.2 0.4,0 0.65,0.35 l 2.55,3.05 0.25,0.7 -0.35,0.7 -0.4,0.35 -0.15,0.15 q -2.95,3.1 -2.95,7.4 0,4.4 3.1,7.5 3.1,3.1 7.5,3.1 4.3,0 7.35,-2.95 l 0.15,-0.15 0.15,-0.15 q 2.95,-3.05 2.95,-7.35 0,-4.4 -3.1,-7.5 h -0.05 l -0.45,-0.45 -0.35,-0.7 q 0,-0.4 0.25,-0.7 l 2.6,-3.05 q 0.25,-0.35 0.7,-0.35 l 0.7,0.2 m -8.25,-4.15 0.3,0.7 v 17 l -0.3,0.7 -0.7,0.3 h -4 l -0.7,-0.3 q -0.3,-0.3 -0.3,-0.7 v -17 q 0,-0.4 0.3,-0.7 0.3,-0.3 0.7,-0.3 h 4 q 0.4,0 0.7,0.3 M 337,210 q 0.85,0 1.45,0.6 0.55,0.6 0.55,1.45 V 240 q 0,0.85 -0.55,1.45 -0.6,0.55 -1.45,0.55 h -2 l -16,-16 16,-16 h 2 m -2.15,48 q 2.95,0 5.05,2.05 2.1,2.1 2.1,5.15 0,2.95 -2.1,5.05 -2.1,2.1 -5.05,2.1 -3,0 -5.1,-2.1 l -0.55,-0.6 -7,4.85 0.15,1.45 -0.25,1.9 7.05,4.5 0.6,-0.7 q 2.1,-2.1 5.1,-2.1 2.95,0 5.05,2.1 2.1,2.1 2.1,5.1 0,3 -2.1,5.1 -2.1,2.1 -5.05,2.1 -3,0 -5.1,-2.1 -2.05,-2.1 -2.05,-5.1 l 0.1,-1.05 -7.5,-4.75 -0.1,0.1 q -2.1,2.1 -5.05,2.1 -3,0 -5.1,-2.1 -2.05,-2.1 -2.05,-5.1 0,-3 2.05,-5.1 2.1,-2.1 5.1,-2.1 2.95,0 5.05,2.1 l 0.4,0.4 7.2,-4.9 -0.1,-1.15 q 0,-3.05 2.05,-5.15 2.1,-2.05 5.1,-2.05 m 26.2,34.95 v -6.8 q 0,-1.25 0.85,-2.1 V 284 q 0.9,-0.9 2.15,-0.9 H 373 v -9.7 q -1.25,-0.55 -2.35,-1.6 -2.15,-2.2 -2.15,-5.3 0,-3.1 2.15,-5.3 2.25,-2.2 5.35,-2.2 3.1,0 5.3,2.2 2.2,2.2 2.2,5.3 0,3.1 -2.2,5.3 -1.05,1.05 -2.3,1.6 v 9.7 h 9.05 q 1.2,0 2.1,0.9 0.9,0.9 0.9,2.1 v 6.85 l -0.3,0.7 -0.7,0.3 h -28 l -0.7,-0.3 q -0.3,-0.3 -0.3,-0.7 m -31.65,28.2 v -2.05 h -8.1 v 2.55 h 4.15 l -2.55,3 v 2.2 l 1.75,-0.4 q 1.2,0 1.85,0.5 0.65,0.5 0.65,1.3 0,0.85 -0.55,1.3 -0.6,0.4 -1.5,0.4 -1.45,0 -3.35,-1.3 l -1.2,2.35 q 2.25,1.55 4.45,1.55 2.2,0 3.6,-1.2 1.45,-1.2 1.45,-3.25 0,-1.4 -0.9,-2.5 -0.85,-1.05 -2.45,-1.35 l 2.7,-3.1 m 64.55,-7.2 v 24 h -38 v -19 q 0,-5 5,-5 h 33 M 374.4,320 H 372 v 11 h 7 v -2.2 h -4.6 V 320 m -33.65,-1.35 q 1.25,2.9 1.25,6.35 0,3.45 -1.25,6.35 -1.15,2.7 -3.45,4.95 -4.65,4.7 -11.3,4.7 -6.65,0 -11.35,-4.7 Q 310,331.65 310,325 q 0,-6.65 4.65,-11.35 4.7,-4.65 11.35,-4.65 6.65,0 11.3,4.65 2.3,2.3 3.45,5 m 115.2,0.3 q 0,-5 5,-5 h 33 v 24 h -38 v -19 m 14.6,1.8 h -2.2 v 9.8 h 6.35 v -1.95 h -4.15 v -7.85 m 8.95,0 h -3.95 v 1.9 h 1.85 v 7.9 h 2.1 v -9.8 m -35.55,-1.8 v 19 h -38 v -24 h 33 q 5,0 5,5 m -20.6,4.2 h 1.7 l 1.55,0.3 q 0.4,0.3 0.4,1.2 0,0.9 -0.4,1.3 -0.4,0.45 -1.6,0.45 h -1.65 v -3.25 M 424.9,321 H 421 v 11 h 2.35 v -3.5 h 1.55 l 2.25,3.5 H 430 l -2.6,-3.95 q 2,-0.75 2,-3.4 0,-1.95 -1.05,-2.75 Q 427.3,321 424.9,321 M 639,215.2 617.45,221 H 640 v 19 q 0,0.85 -0.6,1.45 -0.6,0.55 -1.4,0.55 h -26 q -0.85,0 -1.45,-0.55 Q 610,240.85 610,240 v -17 l -1.8,-6.7 q -0.25,-0.85 0.15,-1.55 0.45,-0.75 1.25,-1 l 25.1,-6.7 1.5,0.2 q 0.75,0.4 1,1.2 l 1.8,6.75 M 587.9,213 h -3.95 v 5 h 3.95 v -5 m 3.1,-1 v 28 q 0,0.85 -0.6,1.45 -0.6,0.55 -1.4,0.55 h -28 q -0.85,0 -1.45,-0.55 Q 559,240.85 559,240 v -27.95 q 0,-0.85 0.55,-1.45 0.6,-0.6 1.45,-0.6 h 28 q 0.8,0 1.4,0.6 0.6,0.6 0.6,1.4 m -22.05,1 v 12 h 12 v -12 h -12 m 15,26 h 3.95 v -5 h -3.95 v 5 m 0,-11 h 3.95 v -5 h -3.95 v 5 m -3,11 v -11 h -12 v 11 h 12 m 9.8,25.15 0.05,0.05 q 1.1,1.2 0.9,2.85 v 0.1 l -2.5,13.25 -0.05,0.05 q -0.2,1.2 -1.5,2.05 l -0.15,0.05 -2,0.45 h -15 q -1.25,0 -2.05,-0.5 h -0.05 q -1.35,-0.85 -1.55,-2.05 v -0.05 l -2.3,-12.45 H 560 q -0.4,0 -0.7,-0.3 -0.3,-0.3 -0.3,-0.7 v -2.9 -0.1 q 0,-0.4 0.3,-0.7 0.3,-0.3 0.7,-0.3 h 11.95 l 0.3,0.05 H 588 q 1.65,0 2.75,1.15 M 567,289 q 0,-1.65 1.15,-2.85 1.2,-1.15 2.85,-1.15 1.65,0 2.8,1.15 1.2,1.2 1.2,2.85 0,1.65 -1.2,2.8 -1.15,1.2 -2.8,1.2 -1.65,0 -2.85,-1.2 Q 567,290.65 567,289 m 14,0 q 0,-1.65 1.15,-2.85 1.2,-1.15 2.85,-1.15 1.65,0 2.8,1.15 1.2,1.2 1.2,2.85 0,1.65 -1.2,2.8 -1.15,1.2 -2.8,1.2 -1.65,0 -2.85,-1.2 Q 581,290.65 581,289 m 43.95,-25.05 q 0,1.25 -0.85,2.15 l -7,7 q -0.9,0.85 -2.15,0.85 -1.25,0 -2.1,-0.85 -0.9,-0.9 -0.9,-2.15 0,-1.25 0.9,-2.1 l 7,-7 q 0.85,-0.9 2.1,-0.9 1.25,0 2.15,0.9 0.85,0.85 0.85,2.1 m 7.15,-2.1 7,7 q 0.85,0.85 0.85,2.1 0,1.25 -0.85,2.15 -0.9,0.85 -2.15,0.85 -1.25,0 -2.1,-0.85 l -7,-7 q -0.9,-0.9 -0.9,-2.15 0,-1.25 0.9,-2.1 0.85,-0.9 2.1,-0.9 1.25,0 2.15,0.9 m -17.7,29.8 q -0.55,-0.35 -0.6,-0.85 l -2.45,-13 q -0.15,-0.7 0.3,-1.25 0.5,-0.55 1.35,-0.55 h 26 q 0.8,0 1.3,0.55 0.5,0.55 0.4,1.2 l -2.45,13.05 -0.65,0.85 q -0.55,0.35 -1.2,0.35 h -20.8 l -1.2,-0.35 M 565.9,218 v -5 h -3.95 v 5 h 3.95 M 535,210 h 4 q 0.8,0 1.4,0.6 0.6,0.6 0.6,1.4 v 28 q 0,0.85 -0.6,1.45 -0.6,0.55 -1.4,0.55 h -4 q -0.85,0 -1.45,-0.55 Q 533,240.85 533,240 v -27.95 q 0,-0.85 0.55,-1.45 0.6,-0.6 1.45,-0.6 m -6.6,8.6 q 0.6,0.6 0.6,1.4 v 20 q 0,0.85 -0.6,1.45 -0.6,0.55 -1.4,0.55 h -4 q -0.85,0 -1.45,-0.55 Q 521,240.85 521,240 v -19.95 q 0,-0.85 0.55,-1.45 0.6,-0.6 1.45,-0.6 h 4 q 0.8,0 1.4,0.6 m 33.55,15.4 v 5 h 3.95 v -5 h -3.95 m 0,-6 h 3.95 v -5 h -3.95 v 5 M 517,228 v 12 q 0,0.85 -0.6,1.45 -0.6,0.55 -1.4,0.55 h -4 q -0.85,0 -1.45,-0.55 Q 509,240.85 509,240 v -11.95 q 0,-0.85 0.55,-1.45 0.6,-0.6 1.45,-0.6 h 4 q 0.8,0 1.4,0.6 0.6,0.6 0.6,1.4 m -4.4,31.7 q 0.6,-0.6 1.45,-0.6 h 24 q 0.8,0 1.4,0.6 0.6,0.6 0.6,1.4 v 18.85 H 540 q 0,5.8 -4.1,9.85 -4.05,4.1 -9.85,4.1 H 526 q -5.8,0 -9.9,-4.1 -4.05,-4.05 -4.05,-9.85 v -18.8 q 0,-0.85 0.55,-1.45 m 11.25,6.25 q 0.9,-0.95 2.15,-0.95 1.25,0 2.1,0.95 0.9,0.95 0.9,2.3 v 7.45 q 0,1.35 -0.9,2.3 -0.85,1 -2.1,1 -1.25,0 -2.15,-1 -0.85,-0.95 -0.85,-2.3 v -7.45 q 0,-1.35 0.85,-2.3 m -8.8,6 H 520 v 3.75 q 0.05,2.5 1.65,4.3 1.8,2.05 4.35,2 2.6,0.05 4.4,-2.05 l -0.1,0.15 q 1.7,-1.85 1.7,-4.4 v -3.75 h 5.05 v -9.85 h -22 v 9.85 m 40.9,47 q 0,-5 5,-5 h 33 v 24 h -38 v -19 m -12,0 v 19 h -38 v -24 h 33 q 5,0 5,5 m 86.35,2.4 q -0.95,-0.8 -2.2,-0.8 -1.3,0 -2.1,0.55 -0.8,0.55 -1.5,1.6 l 1.75,1.05 q 0.8,-1.35 1.75,-1.35 0.5,0 0.8,0.35 0.35,0.3 0.35,0.8 0,0.5 -0.4,1.05 l -1.2,1.4 -2.9,2.9 v 1.65 h 6.9 v -1.95 h -3.85 l 1.75,-1.85 1.45,-1.75 0.35,-1.45 q 0,-1.4 -0.95,-2.2 M 521.95,324 q 0,0.8 -0.4,1.2 l -1.5,0.35 h -1.6 v -2.9 h 1.6 q 1.1,0 1.5,0.3 0.4,0.3 0.4,1.05 m 1.25,-2.45 q -0.95,-0.8 -3.25,-0.8 h -3.7 v 9.8 h 2.2 v -3.1 h 1.5 l 2.15,3.1 h 2.7 l -2.45,-3.5 q 1.85,-0.7 1.85,-3.05 0,-1.7 -1,-2.45 m 43.75,-0.8 v 9.8 h 6.35 v -1.95 h -4.15 v -7.85 h -2.2 m -39.4,1.9 v 7.9 h 2.1 v -9.8 h -3.95 v 1.9 h 1.85 m 116.4,-3.7 v 19 h -38 v -24 h 33 q 5,0 5,5 M 284.45,9.6 Q 285,10.2 285,11.05 V 39 q 0,0.85 -0.55,1.45 Q 283.85,41 283,41 h -2 L 265,25 281,9 h 2 q 0.85,0 1.45,0.6 m 293.5,310.95 q -1.3,0 -2.1,0.55 -0.8,0.55 -1.5,1.6 l 1.75,1.05 q 0.8,-1.35 1.75,-1.35 0.5,0 0.8,0.35 0.35,0.3 0.35,0.8 0,0.5 -0.4,1.05 l -1.2,1.4 -2.9,2.9 v 1.65 h 6.9 v -1.95 h -3.85 l 1.75,-1.85 1.45,-1.75 0.35,-1.45 q 0,-1.4 -0.95,-2.2 -0.95,-0.8 -2.2,-0.8 m 40.7,2.1 1.5,0.3 q 0.4,0.3 0.4,1.05 0,0.8 -0.4,1.2 -0.4,0.35 -1.5,0.35 h -1.6 v -2.9 h 1.6 m 3.15,-1.1 q -0.95,-0.8 -3.25,-0.8 h -3.7 v 9.8 h 2.2 v -3.1 h 1.5 l 2.15,3.1 h 2.7 l -2.45,-3.5 q 1.85,-0.7 1.85,-3.05 0,-1.7 -1,-2.45 M 264.05,68.1 v 4 h -4 v -12 h 12 v 4 h -4 l 4,4 v 4 h -4 l -4,-4 m 16,0 4,-4 h -4 v -4 h 12 v 12 h -4 v -4 l -4,4 h -4 v -4 m -20,12 h 4 v 4 l 4,-4 h 4 v 4 l -4,4 h 4 v 4 h -12 v -12 m 20,0 h 4 l 4,4 v -4 h 4 v 12 h -12 v -4 h 4 l -4,-4 v -4 M 215.55,9.6 Q 216.15,9 217,9 h 2 l 16,16 -16,16 h -2 q -0.85,0 -1.45,-0.55 Q 215,39.85 215,39 V 11.05 q 0,-0.85 0.55,-1.45 M 188.4,24.55 q 0.6,0.6 0.6,1.45 v 2 L 175,42 161,28 v -2 q 0,-0.85 0.55,-1.45 Q 162.15,24 163,24 h 6 V 10 Q 169,9.15 169.55,8.55 170.15,8 171,8 h 7.95 q 0.85,0 1.45,0.55 0.6,0.6 0.6,1.45 v 14 h 5.95 q 0.85,0 1.45,0.55 m 1.65,45.3 q 0,0.8 -0.65,1.4 l -10.05,10.1 4.25,4.3 q 0.6,0.6 0.65,1.45 -0.05,0.85 -0.65,1.5 L 182.2,90 H 162.05 V 69.85 l 1.4,-1.45 q 0.6,-0.6 1.5,-0.65 0.85,0.05 1.45,0.65 l 4.35,4.35 10.05,-10.1 q 0.6,-0.6 1.4,-0.65 0.85,0.05 1.45,0.65 l 5.7,5.7 q 0.6,0.65 0.7,1.5 m 52,-9.75 v 4 l -4,4 h 4 v 4 h -12 v -12 h 4 v 4 l 4,-4 h 4 m -20,0 v 12 h -12 v -4 h 4 l -4,-4 v -4 h 4 l 4,4 v -4 h 4 m -12,20 h 12 v 12 h -4 v -4 l -4,4 h -4 v -4 l 4,-4 h -4 v -4 m 28,4 4,4 v 4 h -4 l -4,-4 v 4 h -4 v -12 h 12 v 4 h -4 M 233,114 h -16 v 8 h 16 v -8 m -6,6 v -4 h 4 v 4 h -4 m 14,-2 v 24 h -32 v -32 h 24 l 8,8 m -28,20 h 24 v -12 h -24 v 12 m -23.55,-18.85 1.05,1.95 0.05,0.1 q 3.15,6.25 -0.55,12.75 -3.7,6.8 -11.05,7.05 -0.6,0.05 -1.1,-0.35 -0.45,-0.4 -0.5,-1.05 -0.55,-3.6 -0.45,-5.3 0.05,-0.6 0.4,-1.05 0.4,-0.45 1.05,-0.45 3.05,-0.25 4.6,-2.85 L 182.9,130 q 1.5,-2.5 0.4,-5 -1.45,-3.4 -4.9,-3.6 h -0.05 q -2.45,-0.05 -4.2,1.7 2.45,1.4 3.45,2.3 0.4,0.35 0.5,0.85 l -0.05,1 -0.7,0.75 -13.9,8.05 -1.1,0.15 q -0.55,-0.05 -0.95,-0.5 l -0.35,-1 0.05,-16.3 0.2,-0.85 0.6,-0.6 0.05,-0.05 0.75,-0.2 0.75,0.2 3.5,2 q 1.9,-2.55 4.25,-3.9 v -0.05 q 4.75,-2.85 9.9,-1.55 4.95,1.2 8.2,5.6 l 0.15,0.15 M 172.05,191 h -6 q -0.85,0 -1.45,-0.55 -0.55,-0.6 -0.55,-1.45 v -10 h -4 v -4 l 16,-16 16,16 v 4 h -4 v 10 q 0,0.85 -0.6,1.45 -0.6,0.55 -1.4,0.55 h -6 v -12 h -8 v 12 M 238,163.9 v 15.1 0.35 q -0.3,2.75 -2,4.5 h -0.1 q -1.8,2 -4.25,2.2 h -0.05 q -2.55,0.25 -4.25,-1.55 -1.65,-1.6 -1.4,-4.3 0.25,-2.4 2,-4.2 1.7,-1.7 3.7,-2 H 233 v -5 h -10 v 17 q 0.1,1.9 -2.05,3.8 l -0.05,0.15 q -1.8,1.75 -4.15,2 h -0.05 q -2.6,0.25 -4.25,-1.45 -1.7,-1.65 -1.4,-4.2 0.2,-2.5 1.95,-4.35 l 0.1,-0.05 q 1.65,-1.6 3.6,-2 h 0.05 L 219,180 v -16 q -0.1,-3.1 2.45,-3 H 235 q 3,0 3,2.9 m 46,-49.95 h -16 v 8 h 16 v -8 m 8,8 v 18 q 0,0.85 -0.6,1.45 -0.6,0.55 -1.4,0.55 h -28 q -0.85,0 -1.45,-0.55 -0.55,-0.6 -0.55,-1.45 v -18 h 4 v -8 q 0,-1.65 1.15,-2.8 1.2,-1.2 2.85,-1.2 h 16 q 1.65,0 2.8,1.2 1.2,1.2 1.2,2.8 v 8 h 4 m -14,12 h 2 v -4 h -8 v 4 h 2 v 4 h 4 v -4 m -8.8,28.55 q 0.45,-1.55 2.25,-1.5 H 285 q 3,0 3,2.9 v 15.1 0.35 l -0.3,1.65 -6.8,-6.8 0.75,-0.2 H 283 v -5 h -7.3 l -6.5,-6.5 m -4.7,1.05 q 0.6,-0.6 1.45,-0.6 0.85,0 1.4,0.6 l 23,23 q 0.6,0.55 0.6,1.4 0,0.85 -0.6,1.45 -0.55,0.55 -1.4,0.55 -0.85,0 -1.45,-0.55 l -23,-23 q -0.55,-0.6 -0.55,-1.45 0,-0.85 0.55,-1.4 m -1.5,18.4 0.1,-0.05 q 1.65,-1.6 3.6,-2 h 0.05 L 269,180 v -6.3 l 4,4 v 8.3 q 0.1,1.9 -2.05,3.8 l -0.05,0.15 q -1.8,1.75 -4.15,2 h -0.05 q -2.6,0.25 -4.25,-1.45 -1.7,-1.65 -1.4,-4.2 0.2,-2.5 1.95,-4.35 m 12.95,-1.3 5.45,5.45 q -2.45,0.1 -4.05,-1.6 -1.5,-1.45 -1.4,-3.85 M 90,19 q 0.85,0 1.45,0.6 Q 92,20.2 92,21.05 V 29 q 0,0.85 -0.55,1.45 Q 90.85,31 90,31 H 76 v 6 q 0,0.85 -0.55,1.45 Q 74.85,39 74,39 H 72 L 58,25 72,11 h 2 q 0.85,0 1.45,0.6 Q 76,12.2 76,13.05 V 19 h 14 m 49,3 v 2 q 0,0.85 -0.6,1.45 Q 137.8,26 136.95,26 H 131 v 14 q 0,0.85 -0.6,1.45 Q 129.8,42 128.95,42 H 121 q -0.85,0 -1.45,-0.55 Q 119,40.85 119,40 V 26 h -6 q -0.85,0 -1.45,-0.55 Q 111,24.85 111,24 v -2 l 14,-14 14,14 m -20.6,40.7 q 0.6,-0.6 1.45,-0.65 0.85,0 1.45,0.6 l 10.05,10.1 4.3,-4.3 q 0.6,-0.6 1.45,-0.65 0.9,0.05 1.5,0.65 l 1.45,1.45 v 20.15 h -20.2 l -1.4,-1.45 q -0.6,-0.6 -0.65,-1.45 0.05,-0.85 0.65,-1.5 l 4.3,-4.3 -10.05,-10.1 q -0.6,-0.6 -0.65,-1.35 0.05,-0.9 0.65,-1.5 l 5.7,-5.7 M 87.05,84.3 Q 86.2,84.25 85.6,83.6 L 81.25,79.3 71.2,89.35 Q 70.6,90 69.8,90.05 68.95,90 68.35,89.35 l -5.7,-5.7 Q 62.05,83.05 62,82.2 62,81.4 62.6,80.75 L 72.65,70.7 68.4,66.4 q -0.6,-0.6 -0.65,-1.45 0.05,-0.9 0.65,-1.5 l 1.4,-1.4 H 90 V 82.2 l -1.45,1.4 q -0.6,0.65 -1.5,0.7 M 24,13.05 Q 24,12.2 24.55,11.6 25.15,11 26,11 h 2 L 42,25 28,39 H 26 Q 25.15,39 24.55,38.45 24,37.85 24,37 V 31 H 10 Q 9.15,31 8.55,30.45 8,29.85 8,29 V 21.05 Q 8,20.2 8.55,19.6 9.15,19 10,19 h 14 v -5.95 m 5.2,57.65 10.1,10.1 q 0.6,0.6 0.65,1.45 0,0.8 -0.6,1.4 L 33.6,89.4 Q 33,90 32.15,90.05 31.3,90 30.7,89.4 L 20.6,79.3 16.3,83.6 q -0.6,0.6 -1.45,0.7 -0.85,0 -1.45,-0.6 l -1.45,-1.45 v -20.2 h 20.2 l 1.45,1.45 q 0.6,0.6 0.6,1.45 -0.05,0.8 -0.65,1.4 L 29.2,70.7 m 37.35,46.9 q 0.6,0.05 1.05,0.5 l 5,6 10,-11.85 q 0.35,-0.45 0.95,-0.55 0.6,-0.05 1.05,0.35 l 5.95,5.1 q 0.45,0.35 0.5,0.95 0.05,0.6 -0.3,1.1 l -17,20.3 -0.7,0.45 h -0.8 L 71.5,139.5 59.45,125.1 q -0.4,-0.5 -0.35,-1.05 0.05,-0.65 0.5,-1 l 5.9,-5.1 q 0.5,-0.4 1.05,-0.35 M 26,110 42,126 26,142 h -4 v -8 h -4 v 4 h -8 v -16 q 0,-1.65 1.15,-2.8 1.2,-1.2 2.85,-1.2 h 8 v -8 h 4 m 11.15,49 q 0.9,0.9 0.9,2.1 v 28 q 0,1.25 -0.9,2.15 v 0.05 q -0.9,0.8 -2.1,0.8 h -21 q -1.25,0 -2.1,-0.8 l -0.05,-0.05 q -0.85,-0.9 -0.85,-2.15 v -27.95 q 0,-1.25 0.85,-2.1 V 159 q 0.9,-0.9 2.15,-0.9 h 21 q 1.2,0 2.1,0.9 m -5.1,5.1 h -15 v 20 h 15 v -20 M 63.9,159.05 V 159 q 0.9,-0.9 2.15,-0.9 h 17 q 1.2,0 2.1,0.9 0.9,0.9 0.9,2.1 v 28 q 0,1.25 -0.9,2.15 v 0.05 q -0.9,0.8 -2.1,0.8 h -17 q -1.25,0 -2.1,-0.8 l -0.05,-0.05 q -0.85,-0.9 -0.85,-2.15 v -27.95 q 0,-1.25 0.85,-2.1 m 5.15,5.05 v 20 h 11 v -20 h -11 M 139,110 q 0.8,0 1.4,0.6 0.6,0.6 0.6,1.4 v 6 l -8,8 8,8 v 6 q 0,0.85 -0.6,1.45 -0.6,0.55 -1.4,0.55 h -6 l -8,-8 -8,8 h -6 q -0.85,0 -1.45,-0.55 Q 109,140.85 109,140 v -6 l 8,-8 -8,-8 v -5.95 q 0,-0.85 0.55,-1.45 0.6,-0.6 1.45,-0.6 h 6 l 8,8 8,-8 h 6 m -14,55.75 -1,-0.05 v 20.05 l 1,-0.05 q 3.5,-0.3 6.1,-2.9 h 0.05 q 2.9,-2.9 2.9,-7.1 0,-4.15 -2.9,-7.1 -2.65,-2.55 -6.15,-2.85 m -12.3,-1.35 v -0.05 q 4.7,-4.65 11.3,-4.65 l 1,0.05 q 5.95,0.3 10.3,4.65 4.7,4.7 4.7,11.3 0,6.65 -4.7,11.35 -4.35,4.3 -10.3,4.65 h -1 q -6.6,0 -11.3,-4.65 -4.7,-4.7 -4.7,-11.35 0,-6.6 4.65,-11.3 h 0.05 M 159,210 h 2 l 14,14 v -11.95 q 0,-0.85 0.55,-1.45 0.6,-0.6 1.45,-0.6 h 2 l 16,16 -16,16 h -2 q -0.85,0 -1.45,-0.55 Q 175,240.85 175,240 v -12 l -14,14 h -2 q -0.85,0 -1.45,-0.55 Q 157,240.85 157,240 v -27.95 q 0,-0.85 0.55,-1.45 0.6,-0.6 1.45,-0.6 m -19.6,1.6 q 0.6,0.6 0.6,1.4 v 26 q 0,0.85 -0.6,1.45 -0.6,0.55 -1.4,0.55 h -26 q -0.85,0 -1.45,-0.55 Q 110,239.85 110,239 v -25.95 q 0,-0.85 0.55,-1.45 0.6,-0.6 1.45,-0.6 h 26 q 0.8,0 1.4,0.6 m -58.25,58.9 q 0.35,-0.6 0.2,-1.25 -0.15,-0.65 -0.8,-0.95 l -1.25,-0.2 q -0.65,0.15 -0.95,0.8 -0.3,0.55 -0.15,1.2 0.15,0.65 0.75,1 l 1.2,0.15 1,-0.75 m 2.55,-1.85 q 0.15,0.65 0.75,0.95 l 1.25,0.15 1,-0.7 0.15,-1.25 q -0.15,-0.65 -0.75,-0.95 -0.65,-0.4 -1.25,-0.25 -0.7,0.2 -1,0.8 -0.3,0.6 -0.15,1.25 m 3.05,-8.7 q 0.6,0.3 0.75,0.95 l 3.4,12.5 -0.15,1.25 -1,0.75 -28.35,7.5 -1.2,-0.15 q -0.6,-0.3 -0.75,-0.95 l -3.4,-12.45 q -0.15,-0.7 0.15,-1.3 0.35,-0.55 1,-0.75 l 12.6,-3.35 -1.05,-3.9 q -0.2,-0.65 0.15,-1.2 l 0.25,-0.4 -0.05,-0.2 0.8,-0.2 1.25,0.2 q 0.55,0.35 0.75,1 l 1.05,3.9 12.6,-3.35 1.2,0.15 m 29.2,11.7 -0.8,-3.1 -3.15,0.8 0.8,3.1 -3.15,0.85 0.85,3.1 3.15,-0.85 0.85,3.15 3.15,-0.8 -0.85,-3.15 3.1,-0.85 -0.85,-3.1 -3.1,0.85 m 3.15,-13.4 0.8,-0.2 1.25,0.2 q 0.55,0.35 0.75,1 l 1.05,3.9 12.6,-3.35 1.2,0.15 q 0.6,0.3 0.75,0.95 l 3.4,12.5 -0.15,1.25 -1,0.75 -28.35,7.5 -1.2,-0.15 q -0.6,-0.3 -0.75,-0.95 l -3.4,-12.45 q -0.15,-0.7 0.15,-1.3 0.35,-0.55 1,-0.75 l 12.6,-3.35 -1.05,-3.9 q -0.2,-0.65 0.15,-1.2 l 0.25,-0.4 -0.05,-0.2 m -35.25,-38.1 2.3,-3.3 1.5,1.3 0.05,0.05 q 3.3,3.35 3.3,8.05 0,4.75 -3.3,8.05 l -0.1,0.1 -1.45,1.25 -2.3,-3.3 0.9,-0.75 0.05,-0.05 q 2.2,-2.2 2.2,-5.3 0,-3.05 -2.2,-5.25 l -0.05,-0.1 -0.9,-0.75 M 96,280 v 14 l -0.3,0.7 -0.7,0.3 h -2 l -0.7,-0.3 Q 92,294.4 92,294 V 283 H 90 L 89.3,282.7 89,282 v -2 q 0,-0.4 0.3,-0.7 0.3,-0.3 0.7,-0.3 h 5 q 0.4,0 0.7,0.3 L 96,280 m 40.1,-13.15 q -0.65,-0.4 -1.25,-0.25 -0.7,0.2 -1,0.8 -0.3,0.6 -0.15,1.25 0.15,0.65 0.75,0.95 l 1.25,0.15 q 0.6,-0.15 1,-0.7 0.3,-0.6 0.15,-1.25 -0.15,-0.65 -0.75,-0.95 m -5.95,4.4 1,-0.75 q 0.35,-0.6 0.2,-1.25 -0.15,-0.65 -0.8,-0.95 l -1.25,-0.2 q -0.65,0.15 -0.95,0.8 -0.3,0.55 -0.15,1.2 0.15,0.65 0.75,1 l 1.2,0.15 m 25.9,-1.9 q -0.15,-0.7 0.15,-1.3 0.35,-0.55 1,-0.75 l 12.6,-3.35 -1.05,-3.9 q -0.2,-0.65 0.15,-1.2 l 0.25,-0.4 -0.05,-0.2 0.8,-0.2 1.25,0.2 q 0.55,0.35 0.75,1 l 1.05,3.9 12.6,-3.35 1.2,0.15 q 0.6,0.3 0.75,0.95 l 3.4,12.5 -0.15,1.25 q -0.4,0.55 -1,0.75 l -28.35,7.5 -1.2,-0.15 q -0.6,-0.3 -0.75,-0.95 l -3.4,-12.45 m -20.75,9.95 q 0.3,-0.3 0.7,-0.3 h 8 q 0.4,0 0.7,0.3 l 0.3,0.7 v 8 l -0.3,0.7 q -0.3,0.3 -0.7,0.3 h -5 v 2 h 5 q 0.4,0 0.7,0.3 l 0.3,0.7 v 2 l -0.3,0.7 q -0.3,0.3 -0.7,0.3 h -8 q -0.4,0 -0.7,-0.3 -0.3,-0.3 -0.3,-0.7 v -8 q 0,-0.4 0.3,-0.7 0.3,-0.3 0.7,-0.3 h 5 v -2 h -5 q -0.4,0 -0.7,-0.3 -0.3,-0.3 -0.3,-0.7 v -2 q 0,-0.4 0.3,-0.7 m 24.35,-6 0.85,3.1 3.15,-0.85 0.85,3.15 3.15,-0.8 -0.85,-3.15 3.1,-0.85 -0.85,-3.1 -3.1,0.85 -0.8,-3.1 -3.15,0.8 0.8,3.1 -3.15,0.85 m -82.6,-63.2 q 0.8,0 1.4,0.6 0.6,0.6 0.6,1.4 v 28 q 0,0.85 -0.6,1.45 -0.6,0.55 -1.4,0.55 h -2 l -12,-12 h -4 v -8 h 4 l 12,-12 h 2 m -50,0 q 0.8,0 1.4,0.6 0.6,0.6 0.6,1.4 v 28 q 0,0.85 -0.6,1.45 -0.6,0.55 -1.4,0.55 h -2 l -12,-12 h -4 v -8 h 4 l 12,-12 h 2 m 42,60.7 -3.1,0.85 -0.8,-3.1 -3.15,0.8 0.8,3.1 -3.15,0.85 0.85,3.1 3.15,-0.85 0.85,3.15 3.15,-0.8 -0.85,-3.15 3.1,-0.85 -0.85,-3.1 m -37.5,5.8 Q 31,277.2 31,278 q 0,0.85 0.55,1.4 0.6,0.6 1.45,0.6 0.8,0 1.4,-0.6 0.6,-0.55 0.6,-1.4 0,-0.8 -0.6,-1.4 -0.6,-0.6 -1.4,-0.6 -0.85,0 -1.45,0.6 M 40,276 q -0.85,0 -1.45,0.6 -0.55,0.6 -0.55,1.4 0,0.85 0.55,1.4 0.6,0.6 1.45,0.6 0.8,0 1.4,-0.6 0.6,-0.55 0.6,-1.4 0,-0.8 -0.6,-1.4 Q 40.8,276 40,276 m -24,-4 h -4 v 3.95 H 8 v 4 h 4 v 4 h 4 v -4 h 3.95 v -4 H 16 V 272 M 23.55,261.6 24,261.25 V 261 h 1 q 0.8,0 1.4,0.6 0.6,0.6 0.6,1.4 v 5 h 16 q 0.8,0 1.4,0.6 0.6,0.6 0.6,1.4 v 16 q 0,0.85 -0.6,1.45 Q 43.8,288 43,288 H 7 Q 6.15,288 5.55,287.45 5,286.85 5,286 V 270.05 Q 5,269.2 5.55,268.6 6.15,268 7,268 h 16 v -4.95 q 0,-0.85 0.55,-1.45 M 76,309 q 6.65,0 11.3,4.65 4.7,4.7 4.7,11.35 0,6.65 -4.7,11.3 Q 82.65,341 76,341 69.35,341 64.65,336.3 60,331.65 60,325 60,318.35 64.65,313.65 69.35,309 76,309 m -48.65,9 H 24.6 L 19,331 h 3.05 l 1.2,-2.8 h 5.45 l 1.2,2.8 H 33 l -5.65,-13 m 49.1,8.6 2,0.25 q 0.7,0.25 0.7,1.2 0,0.85 -0.65,1.2 l -1.8,0.3 h -1.9 v -2.95 h 1.65 m -1.65,-5.1 h 1.3 l 1.8,0.25 q 0.5,0.3 0.5,1.15 0,0.85 -0.55,1.15 l -1.75,0.25 h -1.3 v -2.8 M 76.85,319 H 72 v 13 h 5.5 q 2.55,0 3.6,-1.2 0.9,-1.05 0.9,-2.4 0,-1.25 -0.7,-2.05 -0.7,-0.85 -1.85,-1.1 l 0.45,-0.2 0.45,-0.35 q 0.95,-0.7 0.95,-2.25 0,-1.25 -0.85,-2.25 L 79.1,319.35 76.85,319 M 37.3,313.65 q 4.7,4.7 4.7,11.35 0,6.65 -4.7,11.3 Q 32.65,341 26,341 19.35,341 14.65,336.3 10,331.65 10,325 10,318.35 14.65,313.65 19.35,309 26,309 q 6.65,0 11.3,4.65 M 24.35,325.7 26,321.85 27.6,325.7 H 24.35 M 137.3,313.65 q 4.7,4.7 4.7,11.35 0,6.65 -4.7,11.3 -4.65,4.7 -11.3,4.7 -6.65,0 -11.35,-4.7 Q 110,331.65 110,325 q 0,-6.65 4.65,-11.35 4.7,-4.65 11.35,-4.65 6.65,0 11.3,4.65 M 311,212 q 0,-0.8 0.6,-1.4 0.6,-0.6 1.4,-0.6 h 4 q 0.85,0 1.45,0.6 0.55,0.6 0.55,1.45 V 226 240 q 0,0.85 -0.55,1.45 -0.6,0.55 -1.45,0.55 h -4 q -0.8,0 -1.4,-0.55 Q 311,240.85 311,240 V 212 M 132.65,319 h -3.6 l -2.55,3.85 -2.6,-3.85 h -3.6 l 4.25,6.35 L 120,332 h 3.6 l 2.9,-4.25 2.85,4.25 H 133 l -4.5,-6.7 4.15,-6.3 M 288.4,210.6 q 0.6,0.6 0.6,1.4 v 28 q 0,0.85 -0.6,1.45 -0.6,0.55 -1.4,0.55 h -4 q -0.85,0 -1.45,-0.55 Q 281,240.85 281,240 v -14 l -16,16 h -2 q -0.85,0 -1.45,-0.55 Q 261,240.85 261,240 v -27.95 q 0,-0.85 0.55,-1.45 0.6,-0.6 1.45,-0.6 h 2 l 16,16 v -13.95 q 0,-0.85 0.55,-1.45 0.6,-0.6 1.45,-0.6 h 4 q 0.8,0 1.4,0.6 m -43.95,0 q 0.55,0.6 0.55,1.45 V 240 q 0,0.85 -0.55,1.45 -0.6,0.55 -1.45,0.55 h -2 l -14,-14 v 12 q 0,0.85 -0.55,1.45 -0.6,0.55 -1.45,0.55 h -2 l -16,-16 16,-16 h 2 q 0.85,0 1.45,0.6 0.55,0.6 0.55,1.45 V 224 l 14,-14 h 2 q 0.85,0 1.45,0.6 M 269,271 h -4 v 16 h 16 v -4 h 4 v 6 q 0,0.85 -0.55,1.45 H 284.4 Q 283.8,291 283,291 h -20 q -0.85,0 -1.45,-0.55 Q 261,289.85 261,289 v -19.95 q 0,-0.85 0.55,-1.45 0.6,-0.6 1.45,-0.6 h 6 v 4 m 4,-9 h 16 q 0.4,0 0.7,0.3 l 0.3,0.7 v 16 l -0.3,0.7 -0.7,0.3 -0.7,-0.3 -3.3,-3.3 -7.3,7.3 -0.7,0.3 -0.7,-0.3 -8,-8 q -0.3,-0.3 -0.3,-0.7 0,-0.4 0.3,-0.7 l 7.3,-7.3 -3.3,-3.3 q -0.3,-0.3 -0.3,-0.7 0,-0.4 0.3,-0.7 0.3,-0.3 0.7,-0.3 m -28.3,32.7 q -0.3,0.3 -0.7,0.3 h -2 q -0.4,0 -0.7,-0.3 -0.3,-0.3 -0.3,-0.7 v -5 h -5 q -0.4,0 -0.7,-0.3 -0.3,-0.3 -0.3,-0.7 v -8 q 0,-0.4 0.3,-0.7 0.3,-0.3 0.7,-0.3 h 2 q 0.4,0 0.7,0.3 l 0.3,0.7 v 5 h 2 v -5 q 0,-0.4 0.3,-0.7 0.3,-0.3 0.7,-0.3 h 2 q 0.4,0 0.7,0.3 l 0.3,0.7 v 14 l -0.3,0.7 m -63.35,-25.45 q -0.15,-0.65 -0.8,-0.95 l -1.25,-0.2 q -0.65,0.15 -0.95,0.8 -0.3,0.55 -0.15,1.2 0.15,0.65 0.75,1 l 1.2,0.15 q 0.65,-0.2 1,-0.75 0.35,-0.6 0.2,-1.25 m 2.35,-0.6 q 0.15,0.65 0.75,0.95 l 1.25,0.15 1,-0.7 0.15,-1.25 q -0.15,-0.65 -0.75,-0.95 -0.65,-0.4 -1.25,-0.25 -0.7,0.2 -1,0.8 -0.3,0.6 -0.15,1.25 m 11,10.65 0.3,0.7 v 14 l -0.3,0.7 -0.7,0.3 h -8 l -0.7,-0.3 Q 185,294.4 185,294 v -2 q 0,-0.4 0.3,-0.7 0.3,-0.3 0.7,-0.3 h 5 v -2 h -5 l -0.7,-0.3 Q 185,288.4 185,288 v -2 q 0,-0.4 0.3,-0.7 0.3,-0.3 0.7,-0.3 h 5 v -2 h -5 l -0.7,-0.3 Q 185,282.4 185,282 v -2 q 0,-0.4 0.3,-0.7 0.3,-0.3 0.7,-0.3 h 8 q 0.4,0 0.7,0.3 m 24.35,-8.5 -3.1,0.85 -0.8,-3.1 -3.15,0.8 0.8,3.1 -3.15,0.85 0.85,3.1 3.15,-0.85 0.85,3.15 3.15,-0.8 -0.85,-3.15 3.1,-0.85 -0.85,-3.1 m 15.4,-1.2 1.25,0.15 1,-0.7 0.15,-1.25 q -0.15,-0.65 -0.75,-0.95 -0.65,-0.4 -1.25,-0.25 -0.7,0.2 -1,0.8 -0.3,0.6 -0.15,1.25 0.15,0.65 0.75,0.95 m 2.3,-9.65 q 0.6,0.3 0.75,0.95 l 3.4,12.5 -0.15,1.25 -1,0.75 -28.35,7.5 -1.2,-0.15 q -0.6,-0.3 -0.75,-0.95 l -3.4,-12.45 q -0.15,-0.7 0.15,-1.3 0.35,-0.55 1,-0.75 l 12.6,-3.35 -1.05,-3.9 q -0.2,-0.65 0.15,-1.2 l 0.25,-0.4 -0.05,-0.2 0.8,-0.2 1.25,0.2 q 0.55,0.35 0.75,1 l 1.05,3.9 12.6,-3.35 1.2,0.15 m -8.55,10.15 q 0.15,0.65 0.75,1 l 1.2,0.15 1,-0.75 q 0.35,-0.6 0.2,-1.25 -0.15,-0.65 -0.8,-0.95 l -1.25,-0.2 q -0.65,0.15 -0.95,0.8 -0.3,0.55 -0.15,1.2 m 9.1,43.55 q 4.7,4.7 4.7,11.35 0,6.65 -4.7,11.3 -4.65,4.7 -11.3,4.7 -6.65,0 -11.35,-4.7 Q 210,331.65 210,325 q 0,-6.65 4.65,-11.35 4.7,-4.65 11.35,-4.65 6.65,0 11.3,4.65 m -63.7,5.45 h -3.2 l 4.6,8.05 v 5.25 h 2.95 v -5.25 l 4.6,-8.05 h -3.2 l -2.9,4.95 -2.85,-4.95 m 48.65,0 v 2.55 h 2.5 v 10.75 h 2.85 v -13.3 h -5.35 M 176,309 q 6.65,0 11.3,4.65 4.7,4.7 4.7,11.35 0,6.65 -4.7,11.3 -4.65,4.7 -11.3,4.7 -6.65,0 -11.35,-4.7 Q 160,331.65 160,325 q 0,-6.65 4.65,-11.35 Q 169.35,309 176,309 m 111.3,27.3 q -4.65,4.7 -11.3,4.7 -6.65,0 -11.35,-4.7 Q 260,331.65 260,325 q 0,-6.65 4.65,-11.35 4.7,-4.65 11.35,-4.65 6.65,0 11.3,4.65 4.7,4.7 4.7,11.35 0,6.65 -4.7,11.3 m -8.85,-16.4 q -1.3,-1.1 -3,-1.1 -1.7,0 -2.85,0.75 -1.1,0.75 -2.05,2.2 l 2.4,1.4 q 1.1,-1.8 2.35,-1.8 0.7,0 1.15,0.45 0.45,0.45 0.45,1.1 0,0.7 -0.5,1.4 l -1.7,1.9 -3.9,4 v 2.2 h 9.35 v -2.65 h -5.25 l 2.4,-2.5 1.95,-2.4 q 0.5,-0.95 0.5,-1.95 0,-1.9 -1.3,-3"
       id="path1" />
  </g>
</svg>
